<svg viewBox="0 0 580 135" fill="none" xmlns="http://www.w3.org/2000/svg">
<path d="M237.699 37.4H226.324V103.23H237.699V37.4Z" fill="#54545F"/>
<path d="M341.528 64.9C353.486 67.8 360.388 71.9 362.041 80C362.325 81.3466 362.455 82.7225 362.43 84.1C362.43 96.4 354.069 104.2 340.459 104.2C330.074 104.111 320.054 100.251 312.168 93.3L319.071 85C325.293 90.5 332.681 94 340.75 94C348.819 94 351.055 90.3 351.055 85.2C351.055 80.1 348.431 77.9 336.375 75.1C322.57 71.8 314.599 67.1 314.599 54.9C314.599 42.7 322.862 36.3 335.695 36.3C344.635 36.1972 353.355 39.1519 360.486 44.7L354.361 53.4C348.528 49 341.917 46 335.987 46C330.056 46 325.973 49.5 325.973 53.9C325.973 58.3 329.181 61.9 341.528 64.9Z" fill="#54545F"/>
<path d="M450.51 37.4L434.858 85.9L418.817 37.4H409.192L393.151 85.9L377.499 37.4H365.152L387.901 103.2H397.817L413.858 56.3L429.899 103.2H439.719L462.468 37.4H450.51Z" fill="#54545F"/>
<path d="M553.853 47.9H537.715V71H553.853C562.505 71 567.852 67.6 567.852 59.1C567.852 50.6 562.408 47.9 553.853 47.9V47.9ZM553.464 81.3H537.715V103.2H526.34V37.4H554.825C569.894 37.4 579.421 45.3 579.421 58.6C579.421 73.4 568.825 81.3 553.464 81.3" fill="#54545F"/>
<path d="M281.156 47.9H264.628V70.9H281.253C289.419 70.9 294.669 66 294.669 59.3C294.669 52.6 289.614 47.9 281.156 47.9V47.9ZM293.016 103.2L278.822 81.1H264.628V103.2H253.157V37.4H282.128C297.002 37.4 306.238 46.5 306.238 59.3C306.238 70.1 299.821 76.6 290.683 79.2L306.529 103.2H293.016Z" fill="#54545F"/>
<path d="M183.84 51.1L193.076 76.1C186.057 76.0878 179.122 77.658 172.757 80.7L183.84 51.1ZM150.98 103.2H162.938C162.938 103.2 171.59 84.3 196.964 86.4L203.77 103.2H215.728L189.284 37.4H178.104L150.98 103.2Z" fill="#54545F"/>
<path d="M497.661 80.7C491.294 77.6641 484.36 76.0943 477.342 76.1L486.578 51.1L497.661 80.7ZM492.314 37.4H481.134L454.593 103.2H466.551L473.453 86.4C498.73 84.3 507.383 103.2 507.383 103.2H519.438L492.314 37.4Z" fill="#54545F"/>
<path d="M98.2878 100.9L65.3308 134.8L48.9981 118C66.611 116.894 83.6216 110.993 98.2878 100.9V100.9Z" fill="#54545F"/>
<path d="M129.592 66.1L125.509 61.9L65.3307 0L5.15258 61.9L0 67.2L1.84715 68.9C3.98595 70.7 6.12476 72.4 8.36078 74C24.6932 85.7633 44.0858 92.2057 64.022 92.491C83.9583 92.7763 103.518 86.8914 120.162 75.6C122.495 74 124.828 72.2 127.064 70.4C129.3 68.6 129.495 68.3 130.661 67.2L129.592 66.1ZM81.1773 81.6C63.2243 70.2634 42.5512 64.3065 21.4853 64.4C48.9981 52.1 82.6356 50.4 113.551 68.7C103.674 75.1153 92.6787 79.4965 81.1773 81.6V81.6Z" fill="#54545F"/>
</svg>
