<svg width="40" height="40" viewBox="0 0 40 40" fill="none" xmlns="http://www.w3.org/2000/svg">
<g>
<path d="M30.0152 29.9372L19.9523 40L14.9607 35.0084C20.3414 34.6913 25.5393 32.9404 30.0152 29.9372Z" fill="white"/>
<path d="M39.5554 19.602L38.3224 18.3756L19.9533 0L1.57771 18.3756L0 19.9533L0.570095 20.4439C1.21311 20.9808 1.87601 21.4913 2.5588 21.9686C9.82421 27.0862 18.833 28.6307 27.1525 26.5956C30.5473 25.7739 33.7715 24.3626 36.6784 22.426C37.4009 21.9487 38.1036 21.4316 38.793 20.888C39.1687 20.5831 39.5399 20.2715 39.9067 19.9533L39.5554 19.602ZM24.7992 24.2224C19.319 20.8555 13.0077 19.0854 6.57599 19.1115C14.9551 15.4589 25.2367 14.9617 34.6631 20.3842C31.657 22.2949 28.3061 23.5988 24.7992 24.2224Z" fill="white"/>
</g>
</svg>
