<svg width="13" height="16" viewBox="0 0 13 16" fill="none" xmlns="http://www.w3.org/2000/svg">
<path opacity="0.1" d="M12.8113 4.22434C12.8067 4.20247 12.7993 4.18217 12.7923 4.16165C12.7885 4.15105 12.7867 4.14 12.7822 4.12962C12.7729 4.10707 12.7605 4.08632 12.7481 4.06557C12.7436 4.05791 12.7404 4.04979 12.7355 4.04235C12.717 4.01461 12.6958 3.9889 12.6726 3.96567L9.85557 1.14868C9.65733 0.950442 9.33619 0.950442 9.13795 1.14868C8.93972 1.34668 8.93972 1.66805 9.13795 1.86629L11.0889 3.81728H1.63913C1.35903 3.81728 1.1317 4.04438 1.1317 4.3247C1.1317 4.60502 1.35903 4.83212 1.63913 4.83212H11.0889L9.1375 6.78334C8.93927 6.98135 8.93927 7.30271 9.1375 7.50095C9.23651 7.59995 9.36641 7.64957 9.49631 7.64957C9.62621 7.64957 9.75589 7.59995 9.85511 7.50095L12.6726 4.68373C12.696 4.66028 12.717 4.63457 12.7355 4.60705C12.7402 4.59961 12.7436 4.59149 12.7481 4.58382C12.7607 4.56308 12.7729 4.54233 12.7822 4.51978C12.7867 4.50963 12.7885 4.49835 12.7923 4.48775C12.7993 4.467 12.8067 4.44671 12.8113 4.42506C12.8178 4.39236 12.8214 4.35875 12.8214 4.3247C12.8214 4.29064 12.8178 4.25704 12.8113 4.22434ZM12.1823 11.1675H2.73246L4.6839 9.21627C4.88213 9.01826 4.88213 8.69689 4.6839 8.49866C4.48567 8.30042 4.16452 8.30042 3.96629 8.49866L1.14884 11.3159C1.12539 11.3393 1.10442 11.365 1.08592 11.3928C1.08119 11.3998 1.07826 11.4074 1.07397 11.4149C1.06112 11.4359 1.04871 11.4571 1.03924 11.4801C1.03496 11.49 1.03315 11.501 1.02954 11.5114C1.02233 11.5322 1.01466 11.5529 1.01015 11.5748C1.00361 11.6077 1 11.6411 1 11.6751C1 11.7092 1.00361 11.7426 1.01015 11.7755C1.01466 11.7974 1.02233 11.8181 1.02954 11.8389C1.03315 11.8492 1.03496 11.8601 1.03924 11.8702C1.04871 11.8932 1.06134 11.9142 1.07397 11.9354C1.07826 11.9426 1.08119 11.9505 1.08592 11.9575C1.10442 11.9852 1.12562 12.0109 1.14884 12.0344L3.96584 14.8514C4.06484 14.9504 4.19474 15 4.32464 15C4.45454 15 4.58422 14.9504 4.68345 14.8514C4.88168 14.6534 4.88168 14.332 4.68345 14.1338L2.73246 12.1828H12.1823C12.4624 12.1828 12.6897 11.9557 12.6897 11.6754C12.6897 11.395 12.4624 11.1675 12.1823 11.1675Z" fill="white" stroke="white" stroke-width="0.2"/>
</svg>
