<svg width="14" height="14" viewBox="0 0 88 88" fill="none" xmlns="http://www.w3.org/2000/svg">
<path d="M44 0C19.7232 0 0 19.7232 0 44C0 68.2768 19.7232 88 44 88C68.2768 88 88 68.2768 88 44C88 19.7232 68.2768 0 44 0ZM44 4C66.1151 4 84 21.8849 84 44C84 66.1151 66.1151 84 44 84C21.8849 84 4 66.1151 4 44C4 21.8849 21.8849 4 44 4ZM44 20C36.2917 20 30 26.2917 30 34C29.9963 34.265 30.0452 34.5281 30.144 34.7741C30.2429 35.02 30.3896 35.2439 30.5757 35.4326C30.7618 35.6213 30.9835 35.7712 31.228 35.8735C31.4725 35.9758 31.7349 36.0285 32 36.0285C32.2651 36.0285 32.5275 35.9758 32.772 35.8735C33.0165 35.7712 33.2382 35.6213 33.4243 35.4326C33.6104 35.2439 33.7571 35.02 33.856 34.7741C33.9548 34.5281 34.0037 34.265 34 34C34 28.4535 38.4535 24 44 24C49.5465 24 54 28.4535 54 34C54 37.4056 52.6008 39.8144 50.4375 42.0938C48.2742 44.373 45.3504 46.3572 42.75 48.4375C42.5158 48.625 42.3268 48.8628 42.197 49.1333C42.0671 49.4038 41.9998 49.7 42 50V56C41.9963 56.265 42.0452 56.5281 42.144 56.7741C42.2429 57.02 42.3896 57.2439 42.5757 57.4326C42.7618 57.6213 42.9835 57.7712 43.228 57.8735C43.4725 57.9758 43.7349 58.0285 44 58.0285C44.2651 58.0285 44.5275 57.9758 44.772 57.8735C45.0165 57.7712 45.2382 57.6213 45.4243 57.4326C45.6104 57.2439 45.7571 57.02 45.856 56.7741C45.9548 56.5281 46.0037 56.265 46 56V50.9688C48.28 49.2056 50.9725 47.3091 53.3125 44.8438C55.8992 42.1181 58 38.5751 58 34C58 26.2917 51.7083 20 44 20ZM44 62C42.3431 62 41 63.3431 41 65C41 66.6568 42.3431 68 44 68C45.6569 68 47 66.6568 47 65C47 63.3431 45.6569 62 44 62Z" fill="#AAAAAA"/>
</svg>
