<svg width="12" height="12" viewBox="0 0 12 12" fill="none" xmlns="http://www.w3.org/2000/svg">
<g>
<circle cx="6" cy="6" r="5.5" stroke="black"/>
<path d="M4.36479 3.30721C4.47039 3.21121 4.58559 3.12161 4.71039 3.03841C4.83519 2.95521 4.96959 2.88161 5.11359 2.81761C5.26079 2.75361 5.41919 2.70401 5.58879 2.66881C5.76159 2.63041 5.94719 2.61121 6.14559 2.61121C6.41119 2.61121 6.65439 2.64961 6.87519 2.72641C7.09919 2.80001 7.29119 2.90721 7.45119 3.04801C7.61439 3.18561 7.74079 3.35361 7.83039 3.55201C7.91999 3.74721 7.96479 3.96641 7.96479 4.20961C7.96479 4.45281 7.92959 4.66401 7.85919 4.84321C7.78879 5.01921 7.69919 5.17281 7.59039 5.30401C7.48159 5.43521 7.36319 5.55041 7.23519 5.64961C7.10719 5.74561 6.98559 5.83681 6.87039 5.92321C6.75839 6.00641 6.66079 6.09121 6.57759 6.17761C6.49759 6.26081 6.44959 6.35361 6.43359 6.45601L6.33279 7.17601H5.63199L5.55999 6.38401C5.54399 6.23361 5.56799 6.10401 5.63199 5.99521C5.69599 5.88641 5.78079 5.78401 5.88639 5.68801C5.99519 5.59201 6.11359 5.50081 6.24159 5.41441C6.37279 5.32481 6.49439 5.22561 6.60639 5.11681C6.71839 5.00801 6.81279 4.88641 6.88959 4.75201C6.96639 4.61761 7.00479 4.45601 7.00479 4.26721C7.00479 4.14241 6.98079 4.03041 6.93279 3.93121C6.88479 3.82881 6.81759 3.74241 6.73119 3.67201C6.64479 3.60161 6.54399 3.54721 6.42879 3.50881C6.31359 3.47041 6.18879 3.45121 6.05439 3.45121C5.86559 3.45121 5.70559 3.47361 5.57439 3.51841C5.44319 3.56321 5.33119 3.61281 5.23839 3.66721C5.14559 3.71841 5.06879 3.76641 5.00799 3.81121C4.94719 3.85281 4.89599 3.87361 4.85439 3.87361C4.75519 3.87361 4.68159 3.83041 4.63359 3.74401L4.36479 3.30721ZM5.28639 9.00481C5.28639 8.91201 5.30239 8.82561 5.33439 8.74561C5.36959 8.66241 5.41599 8.59041 5.47359 8.52961C5.53439 8.46881 5.60479 8.42081 5.68479 8.38561C5.76799 8.35041 5.85599 8.33281 5.94879 8.33281C6.04159 8.33281 6.12799 8.35041 6.20799 8.38561C6.29119 8.42081 6.36319 8.46881 6.42399 8.52961C6.48479 8.59041 6.53279 8.66241 6.56799 8.74561C6.60319 8.82561 6.62079 8.91201 6.62079 9.00481C6.62079 9.10081 6.60319 9.18881 6.56799 9.26881C6.53279 9.34881 6.48479 9.41921 6.42399 9.48001C6.36319 9.54081 6.29119 9.58721 6.20799 9.61921C6.12799 9.65441 6.04159 9.67201 5.94879 9.67201C5.85599 9.67201 5.76799 9.65441 5.68479 9.61921C5.60479 9.58721 5.53439 9.54081 5.47359 9.48001C5.41599 9.41921 5.36959 9.34881 5.33439 9.26881C5.30239 9.18881 5.28639 9.10081 5.28639 9.00481Z" fill="black"/>
</g>
</svg>
