<svg width="30" height="30" viewBox="0 0 30 30" fill="none" xmlns="http://www.w3.org/2000/svg">
<mask id="mask0" mask-type="alpha" maskUnits="userSpaceOnUse" x="0" y="0" width="30" height="30">
<path d="M30 15C30 23.2843 23.2843 30 15 30C6.71573 30 0 23.2843 0 15C0 6.71573 6.71573 0 15 0C23.2843 0 30 6.71573 30 15Z" fill="#C4C4C4"/>
</mask>
<g mask="url(#mask0)">
<path d="M0 0H30V30H0V0Z" fill="#DB6C33"/>
<mask id="mask1" mask-type="alpha" maskUnits="userSpaceOnUse" x="0" y="0" width="30" height="30">
<path d="M0 0H30V30H0V0Z" fill="#DB6C33"/>
</mask>
<g mask="url(#mask1)">
<path d="M7.48395 14.4643C10.9206 8.5119 19.5121 8.51191 22.9487 14.4643L46.2231 54.7768C49.6597 60.7292 45.364 68.1696 38.4907 68.1696H-8.05812C-14.9313 68.1696 -19.2271 60.7292 -15.7905 54.7768L7.48395 14.4643Z" fill="url(#paint0_linear)"/>
</g>
</g>
<defs>
<linearGradient id="paint0_linear" x1="15.2163" y1="1.07143" x2="15.2163" y2="35.5357" gradientUnits="userSpaceOnUse">
<stop stop-color="#C58A80"/>
<stop offset="1" stop-color="#475FF5"/>
</linearGradient>
</defs>
</svg>
