<svg width="30" height="30" viewBox="0 0 30 30" fill="none" xmlns="http://www.w3.org/2000/svg">
<mask id="mask0" mask-type="alpha" maskUnits="userSpaceOnUse" x="0" y="0" width="30" height="30">
<path d="M30 15C30 23.2843 23.2843 30 15 30C6.71573 30 0 23.2843 0 15C0 6.71573 6.71573 0 15 0C23.2843 0 30 6.71573 30 15Z" fill="#C4C4C4"/>
</mask>
<g mask="url(#mask0)">
<path d="M0 0H30V30H0V0Z" fill="#C58A80"/>
<mask id="mask1" mask-type="alpha" maskUnits="userSpaceOnUse" x="0" y="0" width="30" height="30">
<path d="M0 0H30V30H0V0Z" fill="#DB6C33"/>
</mask>
<g mask="url(#mask1)">
<path d="M-19.5161 -31.5357C-16.0794 -37.4881 -7.48793 -37.4881 -4.05132 -31.5357L19.2231 8.77678C22.6597 14.7292 18.364 22.1696 11.4907 22.1696H-35.0581C-41.9313 22.1696 -46.2271 14.7292 -42.7905 8.77678L-19.5161 -31.5357Z" fill="url(#paint0_linear)"/>
</g>
</g>
<defs>
<linearGradient id="paint0_linear" x1="-5.60573e-07" y1="8.49994" x2="20" y2="17.4999" gradientUnits="userSpaceOnUse">
<stop stop-color="#304CD2"/>
<stop offset="1" stop-color="#2B71FF"/>
</linearGradient>
</defs>
</svg>
